# xmcd
#
# Track frame offsets:
#       150
#       17592
#       31790
#       49258
#       62065
#       79107
#       101655
#       118437
#       140274
#       167338
#       171050
#       186041
#       222748
#       247686
#
# Disc length: 3978 seconds
#
# Revision: 2
# Processed by: cddbd v1.5.1PL0 Copyright (c) Steve Scherf et al.
# Submitted via: WhereIsIt 3.67
#
DISCID=b80f880e
DTITLE=George Harrison - All Things Must Pass - CD 2
DYEAR=1970
DGENRE=Rock
TTITLE0=Beware Of Darkness
TTITLE1=Apple Scruffs
TTITLE2=Ballad Of Sir Frankie Crisp (Let It Roll)
TTITLE3=Awaiting On You All
TTITLE4=All Things Must Pass
TTITLE5=I Dig Love
TTITLE6=Art Of Dying
TTITLE7=Isn't It A Pity (Version Two)
TTITLE8=Hear Me Lord
TTITLE9=It's Johnny's Birthday
TTITLE10=Plug Me In
TTITLE11=I Remember Jeep
TTITLE12=Thanks For The Pepperoni
TTITLE13=Out Of The Blue
EXTD=
EXTT0=
EXTT1=
EXTT2=
EXTT3=
EXTT4=
EXTT5=
EXTT6=
EXTT7=
EXTT8=
EXTT9=
EXTT10=
EXTT11=
EXTT12=
EXTT13=
PLAYORDER=
